<svg id="Layer_1" data-name="Layer 1" xmlns="http://www.w3.org/2000/svg" viewBox="0 0 128 128"><title>COMPUTER</title><path d="M113.854,14.424H14.146a1.75,1.75,0,0,0-1.75,1.75V93.1a1.751,1.751,0,0,0,1.75,1.75H49.99l-2.095,8.1H44a1.751,1.751,0,0,0-1.75,1.75v7.133a1.75,1.75,0,0,0,1.75,1.75H84a1.75,1.75,0,0,0,1.75-1.75v-7.133a1.751,1.751,0,0,0-1.75-1.75H80.105l-2.095-8.1h35.844a1.751,1.751,0,0,0,1.75-1.75V16.174A1.75,1.75,0,0,0,113.854,14.424Zm-31.6,95.652H45.75v-3.633h36.5Zm-5.76-7.133H51.51l2.095-8.1H74.4Zm35.614-11.6H15.9V17.924H112.1Z"/><path d="M21.4,81.5H106.6a1.75,1.75,0,0,0,1.75-1.75V22.865a1.75,1.75,0,0,0-1.75-1.75H21.4a1.75,1.75,0,0,0-1.75,1.75V79.749A1.75,1.75,0,0,0,21.4,81.5Zm1.75-56.884h81.708V78H23.146Z"/><circle cx="64" cy="86.402" r="3.515"/></svg>